<svg xmlns="http://www.w3.org/2000/svg" viewBox="0 0 512 512"><g fill="#231815"><path d="M299 215c9 14 23 37 14 53-4 8-12 12-19 16-2 1-21 12-19 15-1-2 5-10 5-11 4-4 10-7 15-10 11-7 18-15 13-29-2-9-6-18-11-26l-15-23c4-1 15 13 17 15zm-86 134c8-4 12-13 13-21 1-7-3-14-1-21 1-8 9-13 17-9 6 3 9 13 1 8-4-2-8-10-13-3-4 5-1 11 0 17 2 10-1 20-8 28-1 2-5 8-8 7-2 0-3-5-1-6z"/><path d="M297 255c3 2 8 0 11 1 2 1 2-1 2 2 0 2-1 2-2 3-3 2-8 1-10 0-4-1-9-6-1-6zm-38 100c-8 5-12 15-17 23l-14 25-26 43c-9 12-22 14-36 12a71 71 0 0 1-23-8c-2-1-12-10-13-9 1-1 6 3 7 4a88 88 0 0 0 45 8c10-2 15-9 20-18l17-28c8-16 17-31 27-46 6-9 12-13 21-18 5-2 8-5 12-9l7-8c1 5-8 14-11 17-5 4-12 7-16 12zm10-205c16-18 35-34 58-43a105 105 0 0 1 46-8c3 0 9 3 12 2l-17 1-20 3c-14 3-28 9-40 17a177 177 0 0 0-40 38l-12 15c-2-4 11-22 13-25z"/><path d="M287 198c-4-15 11-22 22-27s23-10 34-17 22-16 30-27l8-15c0-3 1-13 4-9 3 3-2 13-3 16-3 7-7 13-13 19-8 9-18 15-28 22l-30 18c-6 3-12 7-15 12-2 3-6 15-9 8zm-90-21c0 2-3 15 2 14 4-1 6-15 6-17 4-18 7-36 15-52 14-30 46-53 75-66 4-2 15-6 7-8-6-1-15 5-19 7-14 8-27 19-38 29-28 25-40 58-48 93zM313 64c0 28-16 54-33 76-8 11-19 22-23 36-2 6-1 12 0 18 1 5-1 10-5 2-5-12 4-26 10-36l29-41c8-12 13-28 15-42l1-15c1-7 6-5 6 2zM197 211a615 615 0 0 1-26 48c-1 2-5 9-7 10l4-13 13-25c2-4 17-35 15-35 3 1 2 13 1 15zm-91 182c2 10 6 20 12 28 2 3 14 15 12 19l-14-13c-4-5-9-11-11-16-2-4-8-29-4-28l5 10z"/><path d="M161 269c-6 0-12-1-18 2-5 2-10 7-14 10-11 8-21 17-29 28-8 10-14 22-18 34 0 2-5 13-3 15 4 4 5-5 6-8 5-20 16-40 33-52 7-5 14-11 22-15 5-3 10-4 16-6 2-1 15-8 5-8zM54 433l12-41 7-20c1-2 4-11 7-12-2 0-5 19-6 21l-7 30-4 12c-2 6-4 24-9 27v-17zm273-191a259 259 0 0 1 46-12l5-1c-7 7-23 7-32 10l-29 9c0-2 9-6 10-6zm6 10 30-4c4 0 21-2 24 3h-12l-22 2-30 4c0-2 9-4 10-5zm-2 11a243 243 0 0 1 46 4l5 3-11-1-21-2-30-2 11-2zm-15 162c10-19 16-38 24-57l11-26 6-9c1 5-5 17-6 21-5 13-11 25-15 39a194 194 0 0 1-18 42c-2 3-4 9-7 11l5-21zm52-95c29-3 59 1 87 1h36c6 0 14 0 18 4s4 10-2 7l-4-4c-2-2-6-2-8-2-8-2-15-1-22-1h-91c-3 0-14 3-16 1v1c-3-2-4-6 2-7zm135 40c-7 16-15 30-23 45l-20 32c-1-1 6-15 6-17l17-32 10-20 8-16c1-3 3-9 5-10l-3 18zM205 264c6 1 12 0 18-1l12-3-5 5c-4 2-9 2-13 3-3 0-20-1-19-3l7-1zm22 11c6 0 13-7 19-6l-6 5-8 4c-4 1-15 0-5-3zm35 2c-5 1-14 8-18 5-1 0 20-12 21-8l-3 3z"/><path d="m253 443 108 3h51l26-1 11 1 8 3c-1 1-5-1-7-1h-8l-23 2c-15 2-30 2-46 1h-61l-36-2-43-1-24-3c3-3 21-1 26-1l18-1z"/><path d="M449 461c-16 5-36 2-53 2-22 1-43-1-65-1l-108-1c-6 0-16 1-20-5-4-5 3-14 6-9 0 2-3 4-1 6 1 2 5 2 6 2 10 2 19 1 28 2 42 1 83 0 124 2a974 974 0 0 0 77-3c3 0 6-3 10-4 9-2 2 7-4 9z"/><path d="m81 454-48-1c-6 0-31-5-33 3-2 10 23 5 28 4l43-3 54 3 70 2h24c6 1 14 2 19 1 4-2 7-4 3-7-5-3-17 1-22 1-23 1-45-1-67-1l-71-2zm177-40c3 4 18 1 22 1h18c8 0 13-3 20-5 1-1 4-3 6-2 3 2 0 5-2 6-3 2-11 3-16 4l-22 1c-8 1-18 3-26 1-10-2-2-8 0-6zm33 23c4 4 11 3 14 6s-2 4-6 4c-6-1-20-12-8-10z"/><path d="m269 364-4 27-4 17-3 6c-2-3 0-12 1-16l2-21c1-6 1-15 4-20 6-8 3 3 4 7zm-45 53-1 14c0 3 3 9 1 12-1 1-5-8-5-8-2-4-2-8-2-12 0-2 1-11 4-12 2 0 2 4 3 6zm-79-66c2 9 6 18 10 27 4 7 11 12 15 19l-7-2-9-9a83 83 0 0 1-16-45c2 0 6 9 7 10zm35 40c8-5 13-15 18-22l14-14c1 2-3 9-4 10l-12 17-8 10c-1 1-14 11-15 7l7-8zm104-73 2-11-4-7c2-6 8 5 9 6 1 5 1 9-2 13-3 6-5 5-5-1z"/><path d="M277 309c1-4-2-8-5-10l-5-2c-1-6 10-1 12 1 3 3 4 6 4 11-1 1-1 5-4 5-2 0-1-3-2-5zm-17-4c1-3 0-6-4-8l-4 1c-5-5 6-6 9-5 5 3 6 7 5 12-2 7-3 6-6 0zm-8-63c1-4 2-14 7-16s5 2 5 5c0 5-1 10-4 13-3 4-7 4-8-2zm-9-147c0-3 9-10 12-6v7c2 2 8 0 10-1 3-1 3-5 7-3s0 6-2 8c9 0 10 4 12 11 1 3-2 4 3 4l3-1c2-1 2-5 4-7 3-3 5-2 7-6l6-13c3-8 6-17 5-26 0-21-23-6-33 0-12 7-36 15-38 31l4 2zm71 22 7-1c-1 3-1 6-3 8 6 1 10-4 15-6 2 9 8 4 14 4-1 7-2 13-10 15 4 5 3 9 2 16 12 1 57-40 43-52-8-6-25 0-33 2-12 3-25 7-35 14z"/></g></svg>